<?xml version="1.0" standalone="no"?>
<!DOCTYPE svg PUBLIC "-//W3C//DTD SVG 20010904//EN"
 "http://www.w3.org/TR/2001/REC-SVG-20010904/DTD/svg10.dtd">
<svg version="1.0" xmlns="http://www.w3.org/2000/svg"
 width="200.000000pt" height="200.000000pt" viewBox="0 0 200.000000 200.000000"
 preserveAspectRatio="xMidYMid meet">
<metadata>
Created by potrace 1.11, written by Peter Selinger 2001-2013
</metadata>
<g transform="translate(0.000000,200.000000) scale(0.100000,-0.100000)"
fill="#000000" stroke="none">
<path d="M0 1000 l0 -1000 1000 0 1000 0 0 1000 0 1000 -1000 0 -1000 0 0
-1000z m1407 759 c5 -19 11 -21 52 -15 57 9 226 27 266 29 24 2 30 -2 30 -18
0 -17 -11 -22 -76 -34 l-76 -14 -7 -90 c-3 -50 -6 -132 -6 -184 0 -51 -4 -93
-8 -93 -5 0 -17 6 -28 14 -17 13 -19 26 -17 133 2 65 5 140 9 166 l6 48 -63
-3 c-35 -1 -70 0 -78 2 -9 4 -20 -13 -33 -52 -18 -54 -42 -78 -59 -61 -5 5 3
43 16 86 14 43 25 84 25 92 0 24 41 18 47 -6z m-313 -21 c7 -13 31 -69 51
-126 21 -57 41 -100 45 -95 4 4 12 58 19 118 13 115 19 132 46 122 13 -5 15
-16 10 -54 -4 -27 -10 -115 -13 -198 -7 -146 -8 -150 -30 -153 -19 -3 -27 7
-56 70 -18 40 -41 98 -51 128 -10 30 -20 60 -24 65 -10 18 -20 -69 -20 -192
-1 -126 -5 -136 -40 -114 -12 8 -13 41 -8 193 8 223 13 258 38 258 10 0 25
-10 33 -22z m-747 -40 c10 -15 10 -69 -1 -223 -9 -115 -18 -144 -42 -124 -17
14 -18 102 -3 237 12 109 15 122 27 122 5 0 14 -6 19 -12z m279 -4 c18 -9 49
-34 69 -55 30 -33 35 -46 35 -87 0 -56 -32 -112 -99 -177 -59 -57 -64 -46 -62
138 1 100 -2 158 -9 162 -18 11 -11 35 11 35 12 0 36 -7 55 -16z m285 -51 c37
-17 49 -29 63 -63 16 -41 16 -44 -6 -88 -43 -86 -113 -109 -168 -57 -25 24
-30 36 -30 78 0 27 7 64 16 83 16 34 61 78 73 71 3 -1 27 -12 52 -24z m-396
-433 c4 -6 -12 -29 -34 -51 -76 -77 -157 -278 -106 -267 26 6 124 82 134 105
6 14 19 23 32 23 20 0 21 -4 15 -42 -3 -24 -9 -68 -12 -98 -11 -113 -13 -122
-37 -118 -20 3 -22 9 -22 68 l0 66 -50 -28 c-62 -34 -78 -35 -104 -2 -26 34
-26 69 0 138 23 62 110 201 131 209 22 9 46 8 53 -3z m469 -8 c3 -5 -14 -60
-38 -123 -24 -63 -54 -159 -67 -214 -39 -161 -54 -147 -124 114 -19 73 -40
142 -46 152 -19 37 15 54 44 21 9 -10 31 -69 49 -131 l32 -114 41 124 c58 171
61 179 84 179 11 0 22 -4 25 -8z m545 -34 c19 -53 33 -170 22 -181 -8 -8 -11
-6 -12 9 0 18 -1 18 -9 -1 -8 -19 -9 -19 -9 2 -1 12 -6 34 -12 50 l-11 28 -18
-35 c-18 -33 -19 -33 -20 -10 0 20 -2 22 -11 10 -8 -12 -9 -11 -5 5 32 129 39
145 62 145 8 0 18 -10 23 -22z m-315 -14 c6 -15 -24 -31 -79 -41 -56 -11 -66
-21 -63 -61 l3 -37 52 3 c28 1 54 -2 58 -8 4 -6 -6 -8 -27 -4 -32 5 -32 5 -9
-9 l23 -14 -23 -6 c-13 -4 -36 -7 -50 -7 -31 0 -39 -15 -39 -70 0 -45 14 -52
95 -54 49 -1 51 -3 47 -37 -3 -19 -130 -5 -161 18 -29 23 -41 80 -19 94 10 7
10 11 1 17 -17 11 -27 59 -14 66 16 11 13 63 -4 70 -46 17 16 63 125 91 51 13
76 10 84 -11z m-539 -17 c4 -13 1 -69 -4 -126 -6 -57 -11 -127 -11 -157 0 -51
-2 -54 -25 -54 -33 0 -39 39 -26 150 6 46 11 110 11 141 0 30 3 59 7 62 15 15
43 6 48 -16z m785 -157 c0 -4 14 -10 30 -13 17 -4 38 -8 48 -11 9 -2 22 -5 27
-5 12 -1 35 -57 35 -83 0 -10 -7 -15 -17 -13 -10 2 -21 4 -25 4 -4 1 -11 16
-16 34 -7 26 -14 33 -39 35 -22 2 -38 -3 -52 -17 -11 -11 -27 -18 -35 -15 -17
7 -29 48 -15 53 6 2 14 14 19 27 6 15 15 22 25 18 8 -3 15 -10 15 -14z m-43
-132 c14 -18 -4 -78 -22 -78 -21 0 -28 18 -21 56 7 35 26 44 43 22z m-652
-168 c11 -18 -14 -38 -49 -38 -18 0 -56 -10 -84 -22 l-52 -22 0 -80 0 -79 55
6 c30 4 55 3 55 -1 -1 -21 -20 -36 -61 -48 l-44 -13 -5 -96 c-5 -102 -17 -130
-45 -107 -12 10 -15 32 -14 97 1 71 -1 86 -17 99 -18 14 -18 14 1 29 17 14 20
27 19 96 -1 64 -5 82 -19 93 -31 23 -11 38 85 67 100 29 165 36 175 19z m529
-122 c5 -38 12 -68 15 -67 3 0 29 27 56 59 51 61 71 72 82 44 5 -15 -1 -24
-95 -133 l-42 -49 72 -49 c69 -46 98 -83 64 -83 -8 0 -42 16 -75 35 -32 19
-62 35 -65 35 -3 0 -6 -25 -6 -55 0 -40 -4 -55 -14 -55 -28 0 -34 30 -38 208
-4 180 -4 183 16 180 18 -3 22 -14 30 -70z m-426 3 c-2 -5 5 -16 16 -24 15
-11 17 -17 7 -35 -10 -20 -8 -21 31 -24 38 -3 43 -6 43 -28 0 -22 -4 -25 -40
-26 -22 -1 -43 -2 -48 -3 -4 0 0 -15 8 -32 13 -24 14 -34 4 -45 -24 -30 -59
-3 -59 45 0 26 -4 26 -41 -1 -27 -20 -31 -21 -46 -6 -21 22 -11 45 28 61 l33
13 -32 23 c-34 24 -42 55 -16 65 18 7 34 -1 52 -26 16 -22 32 -23 32 -2 0 8 5
24 10 35 11 20 22 26 18 10z m298 -6 c3 -7 -2 -27 -11 -44 -8 -17 -12 -32 -8
-32 5 -1 24 -2 43 -3 30 -1 35 -4 35 -26 0 -23 -3 -25 -42 -23 -43 2 -55 -11
-32 -34 6 -6 9 -21 7 -34 -2 -18 -9 -24 -28 -24 -21 0 -26 6 -30 34 -6 42 -20
48 -45 21 -23 -25 -41 -26 -55 -1 -11 22 5 45 41 56 12 4 18 12 15 21 -4 10 4
16 24 21 20 3 30 12 30 23 0 10 9 20 20 23 11 3 20 11 20 19 0 11 -2 11 -9 0
-7 -11 -9 -11 -14 0 -3 9 3 14 15 15 10 1 21 -4 24 -12z"/>
<path d="M611 1535 c-1 -58 2 -105 7 -105 12 0 37 29 56 67 24 48 21 90 -10
118 -46 43 -52 35 -53 -80z"/>
<path d="M880 1585 c-7 -9 -21 -13 -31 -10 -24 8 -43 -28 -35 -68 13 -64 49
-75 90 -26 27 32 33 67 16 100 -13 23 -23 24 -40 4z"/>
</g>
</svg>
